<svg width="526" height="644" fill="none" xmlns="http://www.w3.org/2000/svg"><path d="M100 0h158c66.274 0 120 53.726 120 120v268H220c-66.274 0-120-53.726-120-120V0z" fill="#F7DEA6"/><g filter="url(#filter0_d)"><path d="M-67.5 277.238H33.905c43.906 0 79.5 35.593 79.5 79.5v78.667H12c-43.907 0-79.5-35.594-79.5-79.5v-78.667z" stroke="#897942" stroke-opacity=".2"/></g><g filter="url(#filter1_d)"><path d="M132.595 454.595H234c43.907 0 79.5 35.594 79.5 79.5v78.667H212.095c-43.906 0-79.5-35.593-79.5-79.5v-78.667z" stroke="#897942" stroke-opacity=".2"/></g><g filter="url(#filter2_d)"><path d="M132.595 334c0-43.907 35.594-79.5 79.5-79.5h78.667v101.405c0 43.906-35.593 79.5-79.5 79.5h-78.667V334z" stroke="#897942" stroke-opacity=".2"/></g><g filter="url(#filter3_d)"><path d="M-44.762 534.095c0-43.906 35.593-79.5 79.5-79.5h78.667V556c0 43.907-35.594 79.5-79.5 79.5h-78.667V534.095z" stroke="#897942" stroke-opacity=".2"/></g><defs><filter id="filter0_d" x="-76" y="268.738" width="197.905" height="175.167" filterUnits="userSpaceOnUse" color-interpolation-filters="sRGB"><feFlood flood-opacity="0" result="BackgroundImageFix"/><feColorMatrix in="SourceAlpha" values="0 0 0 0 0 0 0 0 0 0 0 0 0 0 0 0 0 0 127 0"/><feOffset/><feGaussianBlur stdDeviation="4"/><feColorMatrix values="0 0 0 0 0 0 0 0 0 0 0 0 0 0 0 0 0 0 0.15 0"/><feBlend in2="BackgroundImageFix" result="effect1_dropShadow"/><feBlend in="SourceGraphic" in2="effect1_dropShadow" result="shape"/></filter><filter id="filter1_d" x="124.095" y="446.095" width="197.905" height="175.167" filterUnits="userSpaceOnUse" color-interpolation-filters="sRGB"><feFlood flood-opacity="0" result="BackgroundImageFix"/><feColorMatrix in="SourceAlpha" values="0 0 0 0 0 0 0 0 0 0 0 0 0 0 0 0 0 0 127 0"/><feOffset/><feGaussianBlur stdDeviation="4"/><feColorMatrix values="0 0 0 0 0 0 0 0 0 0 0 0 0 0 0 0 0 0 0.15 0"/><feBlend in2="BackgroundImageFix" result="effect1_dropShadow"/><feBlend in="SourceGraphic" in2="effect1_dropShadow" result="shape"/></filter><filter id="filter2_d" x="124.095" y="246" width="175.167" height="197.905" filterUnits="userSpaceOnUse" color-interpolation-filters="sRGB"><feFlood flood-opacity="0" result="BackgroundImageFix"/><feColorMatrix in="SourceAlpha" values="0 0 0 0 0 0 0 0 0 0 0 0 0 0 0 0 0 0 127 0"/><feOffset/><feGaussianBlur stdDeviation="4"/><feColorMatrix values="0 0 0 0 0 0 0 0 0 0 0 0 0 0 0 0 0 0 0.15 0"/><feBlend in2="BackgroundImageFix" result="effect1_dropShadow"/><feBlend in="SourceGraphic" in2="effect1_dropShadow" result="shape"/></filter><filter id="filter3_d" x="-53.262" y="446.095" width="175.167" height="197.905" filterUnits="userSpaceOnUse" color-interpolation-filters="sRGB"><feFlood flood-opacity="0" result="BackgroundImageFix"/><feColorMatrix in="SourceAlpha" values="0 0 0 0 0 0 0 0 0 0 0 0 0 0 0 0 0 0 127 0"/><feOffset/><feGaussianBlur stdDeviation="4"/><feColorMatrix values="0 0 0 0 0 0 0 0 0 0 0 0 0 0 0 0 0 0 0.15 0"/><feBlend in2="BackgroundImageFix" result="effect1_dropShadow"/><feBlend in="SourceGraphic" in2="effect1_dropShadow" result="shape"/></filter></defs></svg>