<svg width="638" height="800" fill="none" xmlns="http://www.w3.org/2000/svg"><path d="M268 0h370v800H388c-66.274 0-120-53.726-120-120V0z" fill="#F9BDBD"/><g filter="url(#filter0_d)"><path d="M8.5 423.238h101.405c43.906 0 79.5 35.593 79.5 79.5v78.667H88c-43.907 0-79.5-35.594-79.5-79.5v-78.667z" stroke="#894242" stroke-opacity=".2"/></g><g filter="url(#filter1_d)"><path d="M208.595 600.595H310c43.907 0 79.5 35.594 79.5 79.5v78.667H288.095c-43.906 0-79.5-35.593-79.5-79.5v-78.667z" stroke="#894242" stroke-opacity=".2"/></g><g filter="url(#filter2_d)"><path d="M208.595 480c0-43.907 35.594-79.5 79.5-79.5h78.667v101.405c0 43.906-35.593 79.5-79.5 79.5h-78.667V480z" stroke="#894242" stroke-opacity=".2"/></g><g filter="url(#filter3_d)"><path d="M31.238 680.095c0-43.906 35.593-79.5 79.5-79.5h78.667V702c0 43.907-35.594 79.5-79.5 79.5H31.238V680.095z" stroke="#894242" stroke-opacity=".2"/></g><defs><filter id="filter0_d" x="0" y="414.738" width="197.905" height="175.167" filterUnits="userSpaceOnUse" color-interpolation-filters="sRGB"><feFlood flood-opacity="0" result="BackgroundImageFix"/><feColorMatrix in="SourceAlpha" values="0 0 0 0 0 0 0 0 0 0 0 0 0 0 0 0 0 0 127 0"/><feOffset/><feGaussianBlur stdDeviation="4"/><feColorMatrix values="0 0 0 0 0 0 0 0 0 0 0 0 0 0 0 0 0 0 0.15 0"/><feBlend in2="BackgroundImageFix" result="effect1_dropShadow"/><feBlend in="SourceGraphic" in2="effect1_dropShadow" result="shape"/></filter><filter id="filter1_d" x="200.095" y="592.095" width="197.905" height="175.167" filterUnits="userSpaceOnUse" color-interpolation-filters="sRGB"><feFlood flood-opacity="0" result="BackgroundImageFix"/><feColorMatrix in="SourceAlpha" values="0 0 0 0 0 0 0 0 0 0 0 0 0 0 0 0 0 0 127 0"/><feOffset/><feGaussianBlur stdDeviation="4"/><feColorMatrix values="0 0 0 0 0 0 0 0 0 0 0 0 0 0 0 0 0 0 0.15 0"/><feBlend in2="BackgroundImageFix" result="effect1_dropShadow"/><feBlend in="SourceGraphic" in2="effect1_dropShadow" result="shape"/></filter><filter id="filter2_d" x="200.095" y="392" width="175.167" height="197.905" filterUnits="userSpaceOnUse" color-interpolation-filters="sRGB"><feFlood flood-opacity="0" result="BackgroundImageFix"/><feColorMatrix in="SourceAlpha" values="0 0 0 0 0 0 0 0 0 0 0 0 0 0 0 0 0 0 127 0"/><feOffset/><feGaussianBlur stdDeviation="4"/><feColorMatrix values="0 0 0 0 0 0 0 0 0 0 0 0 0 0 0 0 0 0 0.15 0"/><feBlend in2="BackgroundImageFix" result="effect1_dropShadow"/><feBlend in="SourceGraphic" in2="effect1_dropShadow" result="shape"/></filter><filter id="filter3_d" x="22.738" y="592.095" width="175.167" height="197.905" filterUnits="userSpaceOnUse" color-interpolation-filters="sRGB"><feFlood flood-opacity="0" result="BackgroundImageFix"/><feColorMatrix in="SourceAlpha" values="0 0 0 0 0 0 0 0 0 0 0 0 0 0 0 0 0 0 127 0"/><feOffset/><feGaussianBlur stdDeviation="4"/><feColorMatrix values="0 0 0 0 0 0 0 0 0 0 0 0 0 0 0 0 0 0 0.15 0"/><feBlend in2="BackgroundImageFix" result="effect1_dropShadow"/><feBlend in="SourceGraphic" in2="effect1_dropShadow" result="shape"/></filter></defs></svg>