<svg width="192" height="33" fill="none" xmlns="http://www.w3.org/2000/svg"><path d="M61.04 7.896c.112-.32.288-.56.528-.72.256-.16.536-.24.84-.24.384 0 .712.12.984.36.288.24.432.56.432.96 0 .144-.04.352-.12.624l-5.16 14.28a1.47 1.47 0 01-.648.744 1.805 1.805 0 01-.96.264 1.93 1.93 0 01-.984-.264 1.356 1.356 0 01-.624-.744l-3.984-11.304-4.056 11.304a1.47 1.47 0 01-.648.744 1.805 1.805 0 01-.96.264 1.93 1.93 0 01-.984-.264 1.382 1.382 0 01-.6-.744l-5.16-14.28a2.02 2.02 0 01-.12-.624c0-.4.144-.72.432-.96.304-.24.656-.36 1.056-.36.32 0 .608.08.864.24.256.16.44.4.552.72l4.08 11.736L50 7.968c.112-.32.296-.568.552-.744a1.37 1.37 0 011.68 0c.272.176.464.432.576.768l4.08 11.784 4.152-11.88zm18.547 16.32c-1.648 0-3.08-.352-4.296-1.056-1.2-.704-2.128-1.712-2.784-3.024-.656-1.312-.984-2.848-.984-4.608 0-1.76.32-3.288.96-4.584.656-1.312 1.592-2.32 2.808-3.024 1.216-.704 2.648-1.056 4.296-1.056 1.648 0 3.072.352 4.272 1.056 1.216.704 2.144 1.712 2.784 3.024.656 1.296.984 2.824.984 4.584 0 1.76-.328 3.296-.984 4.608-.656 1.312-1.592 2.32-2.808 3.024-1.2.704-2.616 1.056-4.248 1.056zm0-2.472c1.552 0 2.76-.536 3.624-1.608.88-1.072 1.32-2.608 1.32-4.608 0-2-.44-3.528-1.32-4.584-.864-1.072-2.072-1.608-3.624-1.608-1.568 0-2.792.536-3.672 1.608-.864 1.056-1.296 2.584-1.296 4.584 0 2 .432 3.536 1.296 4.608.88 1.072 2.104 1.608 3.672 1.608zm24.703 2.472c-1.648 0-3.08-.352-4.296-1.056-1.2-.704-2.128-1.712-2.784-3.024-.656-1.312-.984-2.848-.984-4.608 0-1.76.32-3.288.96-4.584.656-1.312 1.592-2.32 2.808-3.024 1.216-.704 2.648-1.056 4.296-1.056 1.648 0 3.072.352 4.272 1.056 1.216.704 2.144 1.712 2.784 3.024.656 1.296.984 2.824.984 4.584 0 1.76-.328 3.296-.984 4.608-.656 1.312-1.592 2.32-2.808 3.024-1.2.704-2.616 1.056-4.248 1.056zm0-2.472c1.552 0 2.76-.536 3.624-1.608.88-1.072 1.32-2.608 1.32-4.608 0-2-.44-3.528-1.32-4.584-.864-1.072-2.072-1.608-3.624-1.608-1.568 0-2.792.536-3.672 1.608-.864 1.056-1.296 2.584-1.296 4.584 0 2 .432 3.536 1.296 4.608.88 1.072 2.104 1.608 3.672 1.608zM122.945 24c-.464 0-.832-.128-1.104-.384-.256-.256-.384-.616-.384-1.08V8.544c0-.464.128-.824.384-1.08.272-.256.64-.384 1.104-.384h4.752c2.768 0 4.912.744 6.432 2.232 1.536 1.472 2.304 3.544 2.304 6.216 0 2.688-.768 4.776-2.304 6.264-1.52 1.472-3.664 2.208-6.432 2.208h-4.752zm4.56-2.52c3.888 0 5.832-1.984 5.832-5.952 0-3.952-1.944-5.928-5.832-5.928h-2.952v11.88h2.952zm19.582 2.664c-.464 0-.84-.144-1.128-.432-.272-.288-.408-.664-.408-1.128V8.496c0-.464.136-.832.408-1.104.288-.288.664-.432 1.128-.432.48 0 .856.144 1.128.432.288.272.432.64.432 1.104v14.088c0 .464-.144.84-.432 1.128-.272.288-.648.432-1.128.432zM159.789 24c-.464 0-.832-.128-1.104-.384-.256-.256-.384-.616-.384-1.08V8.544c0-.464.128-.824.384-1.08.272-.256.64-.384 1.104-.384h8.664c.464 0 .824.104 1.08.312.256.208.384.504.384.888 0 .4-.128.712-.384.936-.256.208-.616.312-1.08.312h-7.128v4.656h6.648c.464 0 .824.104 1.08.312.256.208.384.512.384.912 0 .384-.128.68-.384.888-.256.208-.616.312-1.08.312h-6.648v4.944h7.128c.464 0 .824.112 1.08.336.256.208.384.512.384.912 0 .384-.128.68-.384.888-.256.208-.616.312-1.08.312h-8.664zm24.266.216c-1.232 0-2.4-.16-3.504-.48-1.088-.336-1.976-.784-2.664-1.344-.368-.272-.552-.656-.552-1.152 0-.336.096-.624.288-.864.208-.256.448-.384.72-.384.288 0 .616.112.984.336a7.198 7.198 0 002.16 1.08c.752.224 1.584.336 2.496.336 1.168 0 2.064-.2 2.688-.6.624-.416.936-1.016.936-1.8 0-.608-.296-1.072-.888-1.392-.576-.336-1.544-.656-2.904-.96-1.408-.304-2.552-.656-3.432-1.056-.88-.4-1.544-.912-1.992-1.536-.448-.624-.672-1.416-.672-2.376 0-.992.28-1.88.84-2.664.56-.784 1.336-1.392 2.328-1.824 1.008-.448 2.136-.672 3.384-.672 2.288 0 4.152.608 5.592 1.824.208.176.352.352.432.528.096.16.144.368.144.624 0 .336-.104.632-.312.888-.192.24-.424.36-.696.36-.16 0-.312-.024-.456-.072a3.967 3.967 0 01-.528-.264c-.656-.48-1.296-.832-1.92-1.056-.608-.24-1.36-.36-2.256-.36-1.088 0-1.952.224-2.592.672-.624.432-.936 1.04-.936 1.824 0 .656.28 1.16.84 1.512.56.352 1.512.68 2.856.984 1.424.32 2.576.68 3.456 1.08.896.384 1.576.88 2.04 1.488.48.608.72 1.368.72 2.28 0 .992-.28 1.872-.84 2.64-.544.752-1.32 1.344-2.328 1.776-.992.416-2.136.624-3.432.624z" fill="#3E3F43"/><path d="M.5 3.286h5.786a7.5 7.5 0 017.5 7.5v4H8a7.5 7.5 0 01-7.5-7.5v-4zm15.714 13.928H22a7.5 7.5 0 017.5 7.5v4h-5.786a7.5 7.5 0 01-7.5-7.5v-4zm0-8.214a7.5 7.5 0 017.5-7.5h4v5.786a7.5 7.5 0 01-7.5 7.5h-4V9zM2.286 24.714a7.5 7.5 0 017.5-7.5h4V23a7.5 7.5 0 01-7.5 7.5h-4v-5.786z" stroke="#DAA520"/></svg>