<svg width="120" height="120" fill="none" xmlns="http://www.w3.org/2000/svg"><path d="M50.323 94.839V1.935H27.097v116.13h65.806V94.839h-42.58z" fill="#F7DEA6"/><path d="M52.258 92.903V0H25.161v120H94.84V92.903H52.258zm-3.87-89.032v90.166L34.7 107.723l2.737 2.737 13.686-13.686h39.844v7.742h-38.71v11.613H31.769l2.503-2.503-2.737-2.736-2.503 2.502V98.71h13.549v-3.871H29.032v-3.871h5.807v-3.871h-5.807v-3.871h13.549v-3.871H29.032v-3.871h5.807v-3.871h-5.807v-3.871h13.549V63.87H29.032V60h5.807v-3.871h-5.807v-3.87h13.549v-3.872H29.032v-3.87h5.807v-3.872h-5.807v-3.87h13.549v-3.872H29.032v-3.87h5.807V25.16h-5.807V3.871h19.355zM63.87 108.387h3.87v7.742h-3.87v-7.742zM60 116.129h-3.871v-7.742H60v7.742zm11.613-7.742h3.87v7.742h-3.87v-7.742zm7.742 0h3.87v7.742h-3.87v-7.742zm7.742 7.742v-7.742h3.87v7.742h-3.87z" fill="#333"/><path d="M38.71 19.355a5.814 5.814 0 005.806-5.807 5.814 5.814 0 00-5.806-5.806 5.814 5.814 0 00-5.807 5.806 5.814 5.814 0 005.807 5.807zm0-7.742a1.936 1.936 0 11-.002 3.872 1.936 1.936 0 01.002-3.872z" fill="#333"/></svg>