<svg width="120" height="98" fill="none" xmlns="http://www.w3.org/2000/svg"><path d="M54.194 10.29H7.742v30.968h46.452V10.29z" fill="#F9BDBD"/><path d="M114.193.613H5.807A5.814 5.814 0 000 6.419v71.613a5.814 5.814 0 005.807 5.807H38.71v9.677h-9.678v3.871h61.936v-3.87H81.29v-9.678h32.903A5.814 5.814 0 00120 78.032V6.419a5.814 5.814 0 00-5.807-5.806zM5.807 4.483h108.387c1.068 0 1.935.87 1.935 1.936v60H3.871v-60c0-1.066.867-1.935 1.936-1.935zm71.612 89.033H42.581V83.84h34.838v9.677zm36.774-13.548H5.807a1.937 1.937 0 01-1.936-1.936V70.29h112.258v7.742a1.937 1.937 0 01-1.936 1.936z" fill="#333"/><path d="M67.969 47.064h5.58v.356c-2.248.802-3.871 2.931-3.871 5.451a5.814 5.814 0 005.806 5.807c2.52 0 4.65-1.624 5.45-3.871h16.199c.8 2.247 2.93 3.87 5.45 3.87a5.814 5.814 0 005.807-5.806c0-2.52-1.624-4.649-3.871-5.45v-.357h5.622l2.323-23.225H71.613v3.87h36.571l-1.549 15.484H71.386l-3.871-30.967H60v3.87h4.097l3.872 30.968zm29.161 3.871H80.932a5.8 5.8 0 00-3.515-3.515v-.356h23.226v.356a5.804 5.804 0 00-3.513 3.515zm-21.646 3.871a1.937 1.937 0 01-1.936-1.935c0-1.067.867-1.936 1.936-1.936 1.068 0 1.935.87 1.935 1.936a1.937 1.937 0 01-1.935 1.935zm27.097 0a1.937 1.937 0 01-1.936-1.935c0-1.067.867-1.936 1.936-1.936 1.068 0 1.935.87 1.935 1.936a1.937 1.937 0 01-1.935 1.935z" fill="#333"/><path d="M104.516 33.516H73.548v3.871h30.968v-3.87zM54.194 47.065H7.742v3.87h46.452v-3.87zm0 9.677H7.742v3.871h46.452v-3.87z" fill="#333"/></svg>