<svg width="120" height="120" fill="none" xmlns="http://www.w3.org/2000/svg"><path d="M25.161 46.452c0 11.758 9.532 21.29 21.29 21.29v-42.58c-11.758 0-21.29 9.531-21.29 21.29z" fill="#A8DCEC"/><path d="M112.258 65.806h-42.58V46.453h42.58v19.355z" fill="#F9BDBD"/><path d="M104.516 32.903H73.548v-7.742h30.968v7.742z" fill="#F7DEA6"/><path d="M114.194 38.71h-1.936V15.484H19.355V0H9.677C4.342 0 0 4.342 0 9.677v73.549c0 5.336 4.342 9.677 9.677 9.677h52.258v21.291c0 3.2 2.606 5.806 5.807 5.806h46.452c3.2 0 5.806-2.606 5.806-5.806V44.516c0-3.2-2.606-5.806-5.806-5.806zM3.871 9.677c0-3.2 2.605-5.806 5.806-5.806h5.807v69.677H9.677a9.64 9.64 0 00-5.806 1.94V9.678zm5.806 79.355a5.814 5.814 0 01-5.806-5.806 5.814 5.814 0 015.806-5.807h9.678V19.355h89.032V38.71H68.342c-3.25-9.188-12.03-15.484-21.89-15.484-12.808 0-23.226 10.418-23.226 23.226 0 12.807 10.418 23.225 23.226 23.225 5.767 0 11.264-2.166 15.483-5.94v25.295H9.677zm52.258-44.516H48.387v-17.31c7.295.737 13.617 5.581 16.193 12.452a5.794 5.794 0 00-2.645 4.858zM44.516 65.708c-9.766-.974-17.42-9.239-17.42-19.256 0-10.018 7.654-18.283 17.42-19.257v38.513zm3.871-17.32h13.548v9.634a19.368 19.368 0 01-13.548 7.666v-17.3zm67.742 65.806a1.938 1.938 0 01-1.935 1.935H67.742a1.939 1.939 0 01-1.936-1.935V44.516a1.94 1.94 0 011.936-1.935h46.452a1.94 1.94 0 011.935 1.935v69.678z" fill="#000"/><path d="M100.645 112.258h11.613v-11.613h-11.613v11.613zm3.871-7.742h3.871v3.871h-3.871v-3.871zm-19.355 7.742h11.613v-11.613H85.161v11.613zm3.871-7.742h3.871v3.871h-3.87v-3.871zm-19.355 7.742H81.29v-11.613H69.677v11.613zm3.871-7.742h3.871v3.871h-3.87v-3.871zm27.097-7.742h11.613V85.161h-11.613v11.613zm3.871-7.742h3.871v3.871h-3.871v-3.87zm-19.355 7.742h11.613V85.161H85.161v11.613zm3.871-7.742h3.871v3.871h-3.87v-3.87zm-19.355 7.742H81.29V85.161H69.677v11.613zm3.871-7.742h3.871v3.871h-3.87v-3.87zm27.097-7.742h11.613V69.677h-11.613V81.29zm3.871-7.742h3.871v3.871h-3.871v-3.87zM85.161 81.29h11.613V69.677H85.161V81.29zm3.871-7.742h3.871v3.871h-3.87v-3.87zM69.677 81.29H81.29V69.677H69.677V81.29zm3.871-7.742h3.871v3.871h-3.87v-3.87zm0-50.322h30.968v3.87H73.548v-3.87zm0 7.742h30.968v3.87H73.548v-3.87zm0 27.097h34.839v3.87H73.548v-3.87z" fill="#000"/></svg>