<svg width="120" height="120" fill="none" xmlns="http://www.w3.org/2000/svg"><path d="M105.428 26.439l-.912-.202v-3.011c0-11.758-9.532-21.29-21.29-21.29-9.585 0-17.677 6.338-20.346 15.048l-2.152-.478a3.78 3.78 0 00-1.64 7.378l33.807 7.513 4.092.91 6.801 1.512a3.78 3.78 0 001.64-7.38z" fill="#A8DCEC"/><path d="M17.42 56.129l3.77-7.742-3.77-7.742 8.659-.639 4.889-7.103V1.935H11.613v116.13h19.355V63.871l-4.89-7.103-8.659-.639z" fill="#F7DEA6"/><path d="M104.315 35.81c.102.006.205.033.306.033a5.688 5.688 0 003.563-1.258 5.68 5.68 0 002.139-4.457 5.663 5.663 0 00-3.871-5.39v-1.512C106.452 10.419 96.032 0 83.226 0 73.65 0 65.079 5.954 61.62 14.721l-.474-.104a5.675 5.675 0 00-4.814 1.12 5.677 5.677 0 00-2.139 4.458 5.662 5.662 0 003.872 5.39v7.318c0 9.88 6.21 18.318 14.926 21.666a23.91 23.91 0 00-4.761 2.948L65.127 60H51.61l-.984-4.595a3.865 3.865 0 001.632-3.147h8.499l-.956-2.847a9.96 9.96 0 00-8.017-6.714c-.656-1.216-1.924-2.052-3.397-2.052h-7.742c-1.426 0-2.661.784-3.333 1.936h-4.409a3.875 3.875 0 00-3.87 3.87v3.872a3.875 3.875 0 003.87 3.87h4.41a3.89 3.89 0 001.731 1.58l1.696 6.784c-1.248 1.376-2.03 3.184-2.03 5.185 0 3.354 2.156 6.188 5.144 7.262l2.038 8.156a5.165 5.165 0 002.01 2.948 12.495 12.495 0 00-1.45 5.828v16.991l-2.176.726a5.303 5.303 0 00-3.63 5.038A5.314 5.314 0 0045.953 120h23.723v-.077a14.101 14.101 0 001.77-.279l22.525-5.199 2.005 3.01a5.708 5.708 0 004.757 2.545 5.724 5.724 0 005.718-5.717v-11.702a5.814 5.814 0 00-5.807-5.807h-5.857c1.23-1.622 1.986-3.62 1.986-5.806V60h-.029c-.106-2.942-1.796-5.458-4.246-6.768 6.35-3.513 10.871-9.916 11.816-17.422zM83.225 3.871c10.673 0 19.356 8.682 19.356 19.355v.598l-37.123-8.25C68.479 8.58 75.455 3.872 83.226 3.872zm-21.29 29.032V26.5l15.485 3.44v6.834h3.871a1.936 1.936 0 010 3.871h-3.87v11.222c-8.825-1.798-15.485-9.617-15.485-18.964zm9.95 26.731a20.127 20.127 0 014.82-2.41l-4.82 2.41zm-27.7.743l-1.062-4.248h3.7L47.652 60h-1.2c-.794 0-1.545.155-2.267.377zm8.073-11.99v-1.589c.964.323 1.843.852 2.534 1.59h-2.534zm-11.613-3.87h7.742l.004 7.741h-7.746v-7.742zm-7.742 1.935h3.871v3.87h-3.87v-3.87zM46.452 63.87h23.965l3.87 7.742H46.453a3.875 3.875 0 01-3.871-3.871 3.875 3.875 0 013.87-3.871zm9.867 34.757a13.943 13.943 0 00-2.126 7.404c0 .803.084 1.587.215 2.355h-4.085v-16.45c0-1.775.536-3.48 1.536-4.932a5.203 5.203 0 003.865-3.1c2.637-1.073 5.757-.765 8.145.818v1.821l-7.55 12.085zm-.463-18.816l-.927-4.328h8.942v4.873c-2.528-1.025-5.377-1.205-8.015-.545zm-4.887-4.328l1.258 5.866c.021.095.031.192.031.287v.265a1.326 1.326 0 01-2.613.32l-1.682-6.738h3.006zm16.773 0H77.92l14.723-8.181c.09-.05.17-.115.26-.169V85.16H67.741v-9.677zm-21.788 40.645a1.439 1.439 0 01-.453-2.804l3.2-1.067h6.979a13.938 13.938 0 002.876 3.871H45.954zm56.627-13.548v11.702a1.849 1.849 0 01-1.847 1.846 1.84 1.84 0 01-1.537-.823l-2.423-3.632v-11.029h3.871c1.069 0 1.936.867 1.936 1.936zm-23.226-1.936h13.548v10.072l-22.326 5.153a10.46 10.46 0 01-2.415.259c-5.569 0-10.098-4.529-10.098-10.097 0-1.895.53-3.747 1.535-5.352l7.28-11.648h26.024v1.936a5.814 5.814 0 01-5.806 5.806H71.613v3.871h7.742zm11.411-36.726l-12.518 6.955-4.038-8.075 12.46-6.233a4.225 4.225 0 011.865-.437h.21a4.16 4.16 0 014.158 4.156 4.159 4.159 0 01-2.137 3.634zM81.29 52.26v-7.743a5.813 5.813 0 005.807-5.806 5.814 5.814 0 00-5.807-5.807v-2.102l11.185 2.485.84-3.78-33.807-7.513a1.85 1.85 0 01-1.444-1.798c0-.561.252-1.088.69-1.438a1.832 1.832 0 011.554-.36l44.7 9.933a1.85 1.85 0 011.444 1.798 1.838 1.838 0 01-2.244 1.798l-6.8-1.51-.84 3.78 3.946.877c-1.082 9.652-9.287 17.185-19.224 17.185z" fill="#333"/><path d="M34.264 55.67l-3.296 4.787-3.823-5.551-6.735-.498 2.934-6.02-2.934-6.022 6.735-.498 3.823-5.55 3.296 4.788 3.186-2.197-4.547-6.608V0H9.677v120h23.226V64.473l4.549-6.606-3.188-2.197zm-20.716 60.46V3.871h15.484v28.43l-4.022 5.843-10.581.78 4.608 9.463-4.608 9.463 10.581.78 4.022 5.843v51.656H13.548zm56.129-85.162h-3.87v3.87h3.87v-3.87z" fill="#333"/><path d="M21.29 7.742h-3.87v15.484h3.87V7.742zm0 19.355h-3.87v3.87h3.87v-3.87zm3.871 38.709h-3.87V81.29h3.87V65.806zm-3.871 34.839h-3.87v11.613h3.87v-11.613z" fill="#333"/></svg>